<svg xmlns="http://www.w3.org/2000/svg" width="510.534" height="188" viewBox="0 0 510.534 188">
  <g id="Group_196" data-name="Group 196" transform="translate(-1487.619 13941)">
    <g id="Group_193" data-name="Group 193" transform="translate(2439.765 -339.111)">
      <g id="Hnet.com-image_1_" data-name="Hnet.com-image (1)" transform="translate(-660.765 -13595.89)">
        <path id="Path_105" data-name="Path 105" d="M190.846-135.482c-.259.259-.259,31.57.129,69.35,0,0-1.071,59.279.459,64.985s3.811,6.953,3.811,6.953c1.941,1.682,2.654,2.6,5.952,3.105,8.673-.387,18.5-8.41,34.675-23.16,19.925-17.984,25.1-22.125,27.818-22.125,1.682,0,2.07,2.846,2.588,18.5C266.924,5.417,268.995,10.2,278.31,10.2c6.34,0,19.149-11,50.2-43.085,17.338-17.984,33.769-35.063,36.357-38.039l4.917-5.434,19.537-.388,19.666-.388.388-18.243.388-18.243-9.574-8.928c-5.175-5.046-11.256-9.833-13.715-10.739-5.822-2.458-10.351-.129-22.384,11.386l-9.445,8.928-23.936.518c-20.831.388-24.712.776-29.758,3.105-14.75,6.857-16.82,13.068-16.82,50.46v27.43L279.6-28.611c-7.763,4.787-8.41,3.235-8.41-21.866,0-23.807-.776-27.041-6.728-25.618-1.682.518-12.292,9.186-23.419,19.408-19.537,17.855-29.5,24.842-34.028,23.936-1.294-.259-3.1-.752-4.917-4.011s-2.717-5.175-3.105-51.5L198.609-136h-3.623A11.494,11.494,0,0,0,190.846-135.482Zm200.417,20.831,6.081,5.822H384.017c-10.221,0-13.327-.388-12.938-1.682.647-1.811,11-9.963,12.809-9.963C384.664-120.474,387.9-117.886,391.263-114.652ZM310.009-56.429,289.955-36.374l-.388-10.61c-.647-15.4.518-21.478,4.917-25.877,3.623-3.623,3.882-3.623,19.666-3.623h15.914Z" transform="translate(-190.611 136)" fill="#005faa"/>
        <path id="Path_107" data-name="Path 107" d="M210.2-20.149l-9.7,9.7L210.592-.483l9.963,10.092L229.612.552l9.057-8.928L247.725.552l9.057,9.057L266.874-.483l9.963-9.963-9.963-9.963L256.782-30.5l-9.057,9.057-9.057,8.928-8.8-8.669c-4.787-4.787-9.057-8.669-9.445-8.669C220.166-29.853,215.509-25.454,210.2-20.149Z" transform="translate(-187.844 167.001)" fill="#005faa"/>
      </g>
      <path id="Path_108" data-name="Path 108" d="M-113.691-3.957h-1.51q-3.751,0-5.672-3.98-5.512,5.306-16.445,5.306-6.015,0-8.943-2.4-3.2-2.653-3.2-8.531a18.23,18.23,0,0,1,.663-4.78q.8-2.973,2.1-2.973,1.441,0,1.555,2.241a6.474,6.474,0,0,0,1.349,4.186q2.173,2.241,8.6,2.241a29.248,29.248,0,0,0,11.161-1.807,14.029,14.029,0,0,0,4.872-3.385q1.693-1.807,2.127-1.807,1.212,0,1.212,1.516a5.807,5.807,0,0,1-.377,1.619,7.7,7.7,0,0,1-.675,1.574,2.128,2.128,0,0,0,1.738.6h1.441Zm-14.318-22.666q.3.244-.016.533l-2.709,2.689a.366.366,0,0,1-.589,0l-2.569-2.485-2.523,2.487q-.25.306-.591-.014l-2.728-2.646q-.32-.319.069-.708l2.488-2.533a.451.451,0,0,1,.708,0l2.585,2.447,2.378-2.447a.457.457,0,0,1,.732,0Zm21.9,10.647q0,6.365-1.807,8.975-2.1,3.045-7.776,3.045h-1.784V-14.34h5.169q1.349,0,1.349-.756a1.54,1.54,0,0,0-.389-.893,28.894,28.894,0,0,0-3.66-3.826q-.343-.321,0-.825l4.254-6.187q.343-.5.5-.5.206,0,.572.458A16.731,16.731,0,0,1-106.11-15.976Zm1.722,18.714q.32.254-.029.579l-2.721,2.676a.372.372,0,0,1-.6,0L-110.3,3.5l-2.516,2.493a.372.372,0,0,1-.595,0l-2.722-2.653q-.343-.32.07-.731l2.507-2.548a.438.438,0,0,1,.691.011l2.571,2.474,2.42-2.476a.459.459,0,0,1,.722-.018Zm20.406-6.695H-85.24a2.808,2.808,0,0,1-1.693-.549v2.013a13.941,13.941,0,0,1-1.4,5.626,15.637,15.637,0,0,1-2.653,4.277,1.8,1.8,0,0,1-1.4.549H-103.1q-1.9,0-1.9-1.555a1.291,1.291,0,0,1,.8-1.235A58.274,58.274,0,0,0-96.745.686q5.764-3.934,5.764-5.6,0-1.372-5.146-6.175l3.659-7.548q.343-.686.846-.16A36.822,36.822,0,0,0-88.6-15.873a6.166,6.166,0,0,0,3.8,1.51h.823Zm7.558-12.02q0,6.365-1.807,8.975-2.1,3.045-7.776,3.045h-1.784V-14.34h5.169q1.349,0,1.349-.756a1.54,1.54,0,0,0-.389-.893,28.891,28.891,0,0,0-3.659-3.826q-.343-.321,0-.825l4.254-6.187q.343-.5.5-.5.206,0,.572.458A16.731,16.731,0,0,1-76.424-15.976ZM-74.7,2.738q.32.254-.029.579l-2.721,2.676a.372.372,0,0,1-.6,0L-80.61,3.5l-2.516,2.493a.372.372,0,0,1-.595,0L-86.442,3.34q-.343-.32.07-.731L-83.866.061a.438.438,0,0,1,.691.011L-80.6,2.546l2.42-2.476a.459.459,0,0,1,.722-.018Zm25.14-6.695h-1.99q-4.369,0-7.159-5.7a16.949,16.949,0,0,1-3.614,4.826A7.9,7.9,0,0,1-67.448-3.2q-7,0-7-8.211a15.52,15.52,0,0,1,.5-3.751q.686-2.768,1.9-2.768A1.6,1.6,0,0,1-70.4-16.673a17.346,17.346,0,0,0,.823,2.333q.915,1.258,3.339,1.258a11.169,11.169,0,0,0,3.225-.48q1.967-.595,1.967-1.418a.759.759,0,0,0-.069-.3l-3.8-9.08,5.078-5.123q.366-.366.549-.366.16,0,.366.55l4.3,11.842q1.121,3.115,3.339,3.115h1.715Zm14.786-7.2A7.377,7.377,0,0,1-36.7-6.038a6.324,6.324,0,0,1-4.94,2.219,7.056,7.056,0,0,1-6.107-3.614q-1.578,3.477-4.208,3.477h-1.464V-14.34h.755q2.882,0,3-1.812a8.284,8.284,0,0,1,1.349-4.22,6.109,6.109,0,0,1,5.444-2.752q4.346,0,6.518,4.574A16.975,16.975,0,0,1-34.776-11.161Zm-3.614-1.853a7.427,7.427,0,0,0-.8-3.156q-.961-2.036-2.241-2.036a1.441,1.441,0,0,0-1.144.537,1.866,1.866,0,0,0-.457,1.247,8.043,8.043,0,0,0,.755,3.385q.961,2.1,2.607,2.1Q-38.39-10.933-38.39-13.014ZM-174.066,47.031q0,14.455-17.634,14.455-13.609,0-13.609-11.619a27.391,27.391,0,0,1,.984-6.267q1.235-4.963,2.859-4.963,1.9,0,1.9,2.264a14.217,14.217,0,0,1-.24,2.139,14.218,14.218,0,0,0-.24,2.139q0,6.358,11,6.358a31.717,31.717,0,0,0,10.521-1.693q.846-.3.846-.709,0-.48-1.189-.595l-7.593-.778q-4.712-.938-4.712-4.231A18.437,18.437,0,0,1-188.544,35q3.271-6.038,7.822-6.038a6,6,0,0,1,4.963,2.859,7.411,7.411,0,0,1,1.693,4.186q0,2.264-.709,2.264a18.848,18.848,0,0,1-2.5-.72,12.348,12.348,0,0,0-3.579-.72,6.551,6.551,0,0,0-3.98,1.189q-1.327.961-1.327,1.738,0,.526,3.133.938,4.78.618,5.4.755Q-174.066,42.228-174.066,47.031Zm14.821,2.7h-2.47q-8.577,0-8.577-8.966,0-3.82-.274-10.041-.3-6.564-.618-8.691a1.572,1.572,0,0,1,.366-1.51l6.656-4.689a2.254,2.254,0,0,1,.938-.48q.3,0,.3.549v20.15q0,3.339,2.951,3.339h.732Zm21.179-8.508a10.907,10.907,0,0,1-1.487,5.1q-1.853,3.454-4.529,3.454-1.921,0-6.358-3-3.248,3-6.015,3h-4.117V39.369h2.676a3.913,3.913,0,0,1-.5-2.036q0-3.019,2.219-4.048l-1.349-.869,3.065-6.93q.5-1.144,1.1-1.144a4.025,4.025,0,0,1,1.372.595,44.517,44.517,0,0,1,9.309,6.541Q-138.066,36.03-138.066,41.222Zm-4.414.892q0-1.532-3.271-3.842v.457a3.235,3.235,0,0,1-1.532,3.111,11.864,11.864,0,0,0,1.807,1.144,5.1,5.1,0,0,0,1.944.732Q-142.48,43.715-142.48,42.114Zm-6.724-4.574a1.812,1.812,0,0,0-.789-1.429,2.544,2.544,0,0,0-1.59-.629,3.691,3.691,0,0,0-1.784.5q-1.052.595-1.052,1.372,0,.64,1.167,1.349a3.646,3.646,0,0,0,1.784.663,2.516,2.516,0,0,0,1.5-.572A1.6,1.6,0,0,0-149.2,37.539Zm45.812-.64q0,7.982-5.123,11.116-3.934,2.4-12.259,2.4-6.816,0-10.087-1.807-4.391-2.424-4.391-8.623a16.666,16.666,0,0,1,.846-5.215q.938-2.882,2.241-2.882,1.327,0,1.3,2.333a4.952,4.952,0,0,0,1.327,3.934q2.264,2.013,9.1,2.013,6.061,0,7.708-.114a8.754,8.754,0,0,0,3.751-.869q.549-.343.549-.618a1.979,1.979,0,0,0-.457-.846,12.9,12.9,0,0,0-3.156-2.676.491.491,0,0,1-.206-.732l3.888-7q.252-.457.686-.069A12.339,12.339,0,0,1-103.392,36.9Zm-12.427,19.54q.32.294-.015.633l-3.065,3.065a.424.424,0,0,1-.663,0l-3.111-3.019q-.389-.388.046-.823l2.854-2.886a.514.514,0,0,1,.8.005Zm27.248-6.709h-2.47q-8.577,0-8.577-8.966,0-3.82-.274-10.041-.3-6.564-.618-8.691a1.572,1.572,0,0,1,.366-1.51l6.656-4.689a2.253,2.253,0,0,1,.938-.48q.3,0,.3.549v20.15q0,3.339,2.951,3.339h.732Zm26.829,0H-63.5q-2.264,0-4.323-2.973-2.2,2.973-4,2.973a3.654,3.654,0,0,1-2.356-.983,5.746,5.746,0,0,1-1.6-2.081q-2.081,3.065-3.82,3.065-2.607,0-4.071-3.065-2.058,3.111-4.46,3.111H-89.92V39.46h1.738a2.453,2.453,0,0,0,2.4-1.389q.343-1.207.663-2.414.595-1.549,1.578-1.549,1.144,0,1.51,1.389.137.524.64,2.574a2.069,2.069,0,0,0,2.1,1.389,1.839,1.839,0,0,0,1.83-1.366q.16-.706.64-2.528.366-1.366,1.51-1.366,1.121,0,1.441,1.349.16.709.549,2.516a1.8,1.8,0,0,0,1.807,1.349,1.81,1.81,0,0,0,1.83-1.327q.229-1.212.549-2.516a1.5,1.5,0,0,1,1.555-1.3q1.029,0,1.418,1.327.114.48.64,2.493a2.046,2.046,0,0,0,2.036,1.327h1.738Zm26.691-14.195-2.607,6.159a13.321,13.321,0,0,0-5.878.962,23.3,23.3,0,0,0-4.094,2.816,22.218,22.218,0,0,1-4.14,2.816A17.149,17.149,0,0,1-59,49.776h-4.186V39.392h5.238q7.067,0,10.452-1.288L-52.045,36.2a10.3,10.3,0,0,0-3.454-.989,4.723,4.723,0,0,0-2.413.961,6.057,6.057,0,0,1-1.75.961q-1.3,0-1.3-1.51,0-1.67,2.2-4.712,2.745-3.8,6.038-3.8,2.31,0,5.764,2.175a39.386,39.386,0,0,0,6.29,3.457,49.769,49.769,0,0,0,5.169,1.351q.709.16.709.572A2.591,2.591,0,0,1-35.051,35.535Zm-208.615,66.052q0,8.531-4.483,13.289a1.843,1.843,0,0,1-1.4.549h-10.727q-1.9,0-1.9-1.555a1.291,1.291,0,0,1,.8-1.235,58.27,58.27,0,0,0,7.456-4.483q5.764-3.934,5.764-5.6,0-1.372-5.146-6.175l3.66-7.548q.32-.64.846-.16a14.833,14.833,0,0,1,3.888,5.123A20.515,20.515,0,0,1-243.666,101.587Zm14.775,1.876h-2.47q-8.577,0-8.577-8.966,0-3.82-.274-10.041-.3-6.564-.618-8.691a1.572,1.572,0,0,1,.366-1.51l6.656-4.689a2.254,2.254,0,0,1,.938-.48q.3,0,.3.549v20.15q0,3.339,2.95,3.339h.732Zm30.26.046h-2.036q-3.339,0-5.238-4.025-2.9,3.888-9.835,3.888a15.176,15.176,0,0,1-4.46-.709,8.055,8.055,0,0,1-3.774-2.1q-1.852,2.95-4.3,2.95h-1.967V93.124h1.693a2.353,2.353,0,0,0,2.2-1.378q.16-.3.892-2.6.435-1.378,1.189-1.378.892,0,1.635,2.527t1.818,2.527a19.315,19.315,0,0,0,2.447-2.722,34.836,34.836,0,0,1,4.986-5.055,10.872,10.872,0,0,1,6.564-2.722,5.568,5.568,0,0,1,4.3,1.822,6.387,6.387,0,0,1,1.67,4.481,8.576,8.576,0,0,1-.892,3.965q.274.527,1.212.527h1.9Zm-8.142-11.619q0-2.63-3.133-2.63-3.065,0-7.891,4.757,1.052.046,2.058.046a24.181,24.181,0,0,0,6.747-.778Q-206.773,92.621-206.773,91.889Zm18.206-.4q0,6.365-1.807,8.975-2.1,3.045-7.776,3.045h-1.784V93.124h5.169q1.349,0,1.349-.756a1.54,1.54,0,0,0-.389-.893,28.89,28.89,0,0,0-3.659-3.826q-.343-.321,0-.825l4.254-6.186q.343-.5.5-.5.206,0,.572.458A16.731,16.731,0,0,1-188.567,91.488Zm-2.63-18.72a.411.411,0,0,1,.008.671l-3.089,3.041a.438.438,0,0,1-.679,0l-3.106-3q-.389-.367.072-.827l2.859-2.9a.486.486,0,0,1,.778,0Zm14.821,18.8a27,27,0,0,1-.617,5.1,22.6,22.6,0,0,1-1.418,4.917q-.961,2.013-1.807,2.013-.915,0-1.578-2.447-.938-3.454-3.98-23.81l6.907-7.525q.64-.709.869-.709.183,0,.32.64a61.286,61.286,0,0,1,1.235,10.864Q-176.376,82.534-176.376,91.569Zm31.426,11.939h-2.333q-5.032,0-6.45-5.421-.983,2.31-2.127,2.31a13.3,13.3,0,0,1-4.895-1.121q-3.682-1.487-3.682-3.865a9.066,9.066,0,0,1,1.875-5.238q.16-.229,5.627-4.986l-.435-1.967,5.329-5.375a.874.874,0,0,1,.526-.32q.252,0,.366.6l2.173,11.8q.595,3.207,2.516,3.207h1.51Zm-9.743-10.178-1.281-4.666q-3.179,2.379-3.179,3.339Q-159.154,93.078-154.694,93.33Zm36.549-4.063-2.607,6.159a13.322,13.322,0,0,0-5.878.962,23.306,23.306,0,0,0-4.094,2.816,22.22,22.22,0,0,1-4.14,2.816,17.149,17.149,0,0,1-7.228,1.488h-4.186V93.124h5.238q7.067,0,10.452-1.288l-4.552-1.909a10.3,10.3,0,0,0-3.454-.989A4.723,4.723,0,0,0-141,89.9a6.058,6.058,0,0,1-1.75.961q-1.3,0-1.3-1.51,0-1.67,2.2-4.712,2.745-3.8,6.038-3.8,2.31,0,5.764,2.175a39.383,39.383,0,0,0,6.29,3.457,49.772,49.772,0,0,0,5.169,1.351q.709.16.709.572A2.592,2.592,0,0,1-118.144,89.267Zm-5.742,19.434a.292.292,0,0,1-.022.5l-2.722,2.7a.337.337,0,0,1-.526,0l-2.676-2.607-2.607,2.607a.387.387,0,0,1-.572,0l-2.722-2.653q-.32-.3.045-.664l2.523-2.555a.412.412,0,0,1,.651,0l2.685,2.553.029-.011,2.466-2.543a.419.419,0,0,1,.663-.009Zm-2.9,5.21a.351.351,0,0,1-.026.53l-2.721,2.676a.438.438,0,0,1-.274.16.438.438,0,0,1-.275-.16l-2.721-2.676q-.274-.275.089-.642l2.489-2.543a.41.41,0,0,1,.647.006ZM-97.4,101.587q0,8.531-4.483,13.289a1.843,1.843,0,0,1-1.4.549H-114q-1.9,0-1.9-1.555a1.291,1.291,0,0,1,.8-1.235,58.273,58.273,0,0,0,7.456-4.483q5.764-3.934,5.764-5.6,0-1.372-5.146-6.175l3.659-7.548q.32-.64.846-.16a14.834,14.834,0,0,1,3.888,5.123A20.515,20.515,0,0,1-97.4,101.587Zm14.775,1.876h-2.47q-8.577,0-8.577-8.966,0-3.82-.274-10.041-.3-6.564-.618-8.691a1.572,1.572,0,0,1,.366-1.51l6.656-4.689a2.253,2.253,0,0,1,.938-.48q.3,0,.3.549v20.15q0,3.339,2.951,3.339h.732Zm13.22.046h-1.761a5.639,5.639,0,0,1-5.1-3.065,5.863,5.863,0,0,1-5.421,3.065h-2.241V93.124h1.441a3.761,3.761,0,0,0,3.408-1.47,16.667,16.667,0,0,0,.915-2.687q.435-1.47,1.578-1.47,1.1,0,1.418,1.47a14.061,14.061,0,0,0,.755,2.687,3.452,3.452,0,0,0,3.248,1.47H-69.4Zm-1.282,5.514a.329.329,0,0,1-.021.525l-2.7,2.676a.343.343,0,0,1-.549,0l-2.653-2.607-2.653,2.607a.343.343,0,0,1-.549,0l-2.722-2.653q-.3-.293.054-.632l2.536-2.588a.4.4,0,0,1,.645-.016l2.692,2.592.029-.034,2.466-2.543a.409.409,0,0,1,.646.007Zm-2.932,5.219a.313.313,0,0,1,.006.52l-2.7,2.676a.343.343,0,0,1-.549,0l-2.744-2.676q-.274-.271.1-.631l2.466-2.543a.417.417,0,0,1,.659-.005Zm27.2-10.733H-48.2a8.942,8.942,0,0,1-4.78-1.7,16.411,16.411,0,0,1-3.842-3.469,8.249,8.249,0,0,1-4.529,4.273,18.868,18.868,0,0,1-6.564.9h-2.859V93.124H-67.8a21.056,21.056,0,0,0,4.986-.389q.572-.16.572-.5a1.413,1.413,0,0,0-.389-.733q-.915-1.122-7.067-7.487l1.258-7.372a.766.766,0,0,1,.5-.664l17.7-5.861a.721.721,0,0,1,.343-.068q.091.023.046.5l-.775,7.56a2.195,2.195,0,0,1-.091.527.887.887,0,0,1-.479.3l-10.388,3.532q6.152,7.127,6.907,7.838,2.973,2.819,5.855,2.819h2.4ZM-36.4,91.488q0,6.365-1.807,8.975-2.1,3.045-7.776,3.045h-1.784V93.124H-42.6q1.349,0,1.349-.756a1.54,1.54,0,0,0-.389-.893A28.9,28.9,0,0,0-45.3,87.648q-.343-.321,0-.825l4.254-6.186q.343-.5.5-.5.206,0,.572.458A16.731,16.731,0,0,1-36.4,91.488Zm1.722,18.714q.32.254-.029.579l-2.721,2.676a.372.372,0,0,1-.6,0l-2.562-2.493-2.516,2.493a.372.372,0,0,1-.595,0l-2.722-2.653q-.343-.32.07-.731l2.507-2.548a.439.439,0,0,1,.691.011l2.571,2.474,2.42-2.476a.459.459,0,0,1,.722-.018Z" transform="translate(-689.977 -13537.042)" fill="#90a4ae"/>
    </g>
    <rect id="Rectangle_66" data-name="Rectangle 66" width="5" height="188" transform="translate(1745 -13941)" fill="#fe5d3c"/>
  </g>
</svg>
