<svg xmlns="http://www.w3.org/2000/svg" width="219.263" height="176.61" viewBox="0 0 219.263 176.61">
  <g id="Group_178" data-name="Group 178" transform="translate(647.765 13942)">
    <g id="Hnet.com-image_1_" data-name="Hnet.com-image (1)" transform="translate(-647.765 -13942)">
      <path id="Path_105" data-name="Path 105" d="M190.846-135.482c-.259.259-.259,31.57.129,69.35,0,0-1.071,59.279.459,64.985s3.811,6.953,3.811,6.953c1.941,1.682,2.654,2.6,5.952,3.105,8.673-.387,18.5-8.41,34.675-23.16,19.925-17.984,25.1-22.125,27.818-22.125,1.682,0,2.07,2.846,2.588,18.5C266.924,5.417,268.995,10.2,278.31,10.2c6.34,0,19.149-11,50.2-43.085,17.338-17.984,33.769-35.063,36.357-38.039l4.917-5.434,19.537-.388,19.666-.388.388-18.243.388-18.243-9.574-8.928c-5.175-5.046-11.256-9.833-13.715-10.739-5.822-2.458-10.351-.129-22.384,11.386l-9.445,8.928-23.936.518c-20.831.388-24.712.776-29.758,3.105-14.75,6.857-16.82,13.068-16.82,50.46v27.43L279.6-28.611c-7.763,4.787-8.41,3.235-8.41-21.866,0-23.807-.776-27.041-6.728-25.618-1.682.518-12.292,9.186-23.419,19.408-19.537,17.855-29.5,24.842-34.028,23.936-1.294-.259-3.1-.752-4.917-4.011s-2.717-5.175-3.105-51.5L198.609-136h-3.623A11.494,11.494,0,0,0,190.846-135.482Zm200.417,20.831,6.081,5.822H384.017c-10.221,0-13.327-.388-12.938-1.682.647-1.811,11-9.963,12.809-9.963C384.664-120.474,387.9-117.886,391.263-114.652ZM310.009-56.429,289.955-36.374l-.388-10.61c-.647-15.4.518-21.478,4.917-25.877,3.623-3.623,3.882-3.623,19.666-3.623h15.914Z" transform="translate(-190.611 136)" fill="#005faa"/>
      <path id="Path_107" data-name="Path 107" d="M210.2-20.149l-9.7,9.7L210.592-.483l9.963,10.092L229.612.552l9.057-8.928L247.725.552l9.057,9.057L266.874-.483l9.963-9.963-9.963-9.963L256.782-30.5l-9.057,9.057-9.057,8.928-8.8-8.669c-4.787-4.787-9.057-8.669-9.445-8.669C220.166-29.853,215.509-25.454,210.2-20.149Z" transform="translate(-187.844 167.001)" fill="#005faa"/>
    </g>
    <path id="Path_108" data-name="Path 108" d="M-199.516-18.922h-.637a2.572,2.572,0,0,1-2.394-1.679q-2.326,2.239-6.939,2.239a5.874,5.874,0,0,1-3.774-1.013,4.417,4.417,0,0,1-1.351-3.6,7.693,7.693,0,0,1,.28-2.017q.338-1.255.888-1.255.608,0,.656.946a2.732,2.732,0,0,0,.569,1.766q.917.946,3.629.946a12.342,12.342,0,0,0,4.71-.762,5.92,5.92,0,0,0,2.056-1.428q.714-.762.9-.762.512,0,.512.64a2.45,2.45,0,0,1-.159.683,3.25,3.25,0,0,1-.285.664.9.9,0,0,0,.733.252h.608Zm-6.042-9.564q.128.1-.007.225l-1.143,1.134a.154.154,0,0,1-.249,0l-1.084-1.049-1.065,1.05q-.106.129-.249-.006l-1.151-1.117q-.135-.135.029-.3l1.05-1.069a.19.19,0,0,1,.3,0l1.091,1.033,1-1.033a.193.193,0,0,1,.309,0Zm9.241,4.492a6.947,6.947,0,0,1-.762,3.787q-.888,1.285-3.281,1.285h-.753V-23.3h2.181q.569,0,.569-.319a.65.65,0,0,0-.164-.377,12.192,12.192,0,0,0-1.544-1.615q-.145-.135,0-.348l1.8-2.611q.145-.213.212-.213.087,0,.241.193A7.06,7.06,0,0,1-196.317-23.994Zm.727,7.9q.135.107-.012.244l-1.148,1.129a.157.157,0,0,1-.251,0l-1.081-1.052-1.062,1.052a.157.157,0,0,1-.251,0l-1.148-1.12q-.145-.135.029-.308l1.058-1.075a.185.185,0,0,1,.292,0l1.085,1.044,1.021-1.045a.193.193,0,0,1,.3-.008Zm8.611-2.825h-.531a1.185,1.185,0,0,1-.714-.232v.849a5.883,5.883,0,0,1-.589,2.374,6.6,6.6,0,0,1-1.12,1.8.759.759,0,0,1-.589.232h-4.526q-.8,0-.8-.656a.545.545,0,0,1,.338-.521,24.589,24.589,0,0,0,3.146-1.892q2.432-1.66,2.432-2.365,0-.579-2.172-2.606l1.544-3.185q.145-.29.357-.068a15.537,15.537,0,0,0,1.274,1.235,2.6,2.6,0,0,0,1.6.637h.347Zm3.189-5.072a6.947,6.947,0,0,1-.762,3.787q-.888,1.285-3.281,1.285h-.753V-23.3h2.181q.569,0,.569-.319A.65.65,0,0,0-186-24a12.192,12.192,0,0,0-1.544-1.615q-.145-.135,0-.348l1.8-2.611q.145-.213.212-.213.087,0,.241.193A7.06,7.06,0,0,1-183.791-23.994Zm.727,7.9q.135.107-.012.244l-1.148,1.129a.157.157,0,0,1-.251,0l-1.081-1.052-1.062,1.052a.157.157,0,0,1-.251,0l-1.148-1.12q-.145-.135.029-.308l1.058-1.075a.185.185,0,0,1,.292,0l1.085,1.044,1.021-1.045a.193.193,0,0,1,.3-.008Zm10.608-2.825h-.84q-1.843,0-3.021-2.4a7.152,7.152,0,0,1-1.525,2.036A3.333,3.333,0,0,1-180-18.6q-2.953,0-2.953-3.465a6.549,6.549,0,0,1,.212-1.583q.29-1.168.8-1.168a.674.674,0,0,1,.695.531,7.319,7.319,0,0,0,.347.984,1.636,1.636,0,0,0,1.409.531,4.713,4.713,0,0,0,1.361-.2q.83-.251.83-.6a.32.32,0,0,0-.029-.125l-1.6-3.832,2.143-2.162q.154-.154.232-.154t.154.232l1.814,5q.473,1.315,1.409,1.315h.724Zm6.239-3.04a3.113,3.113,0,0,1-.811,2.162,2.669,2.669,0,0,1-2.085.936,2.977,2.977,0,0,1-2.577-1.525q-.666,1.467-1.776,1.467h-.618V-23.3h.318q1.216,0,1.264-.764a3.5,3.5,0,0,1,.569-1.78,2.578,2.578,0,0,1,2.3-1.161,2.937,2.937,0,0,1,2.751,1.93A7.163,7.163,0,0,1-166.217-21.963Zm-1.525-.782a3.134,3.134,0,0,0-.338-1.332q-.405-.859-.946-.859a.608.608,0,0,0-.483.227.787.787,0,0,0-.193.526,3.394,3.394,0,0,0,.318,1.428q.405.888,1.1.888Q-167.741-21.866-167.741-22.744Zm-57.251,33.776q0,6.1-7.441,6.1-5.742,0-5.742-4.9a11.557,11.557,0,0,1,.415-2.644q.521-2.094,1.206-2.094.8,0,.8.955a6,6,0,0,1-.1.9,6,6,0,0,0-.1.9q0,2.683,4.642,2.683a13.384,13.384,0,0,0,4.44-.714q.357-.125.357-.3,0-.2-.5-.251l-3.2-.328q-1.988-.4-1.988-1.785a7.78,7.78,0,0,1,1.11-3.6q1.38-2.548,3.3-2.548a2.532,2.532,0,0,1,2.094,1.206,3.127,3.127,0,0,1,.714,1.766q0,.955-.3.955a7.952,7.952,0,0,1-1.057-.3,5.211,5.211,0,0,0-1.51-.3,2.764,2.764,0,0,0-1.679.5q-.56.405-.56.733,0,.222,1.322.4,2.017.261,2.278.318Q-224.992,9.005-224.992,11.032Zm6.254,1.139h-1.042q-3.619,0-3.619-3.783,0-1.612-.116-4.237-.125-2.77-.261-3.667a.664.664,0,0,1,.154-.637l2.809-1.978a.951.951,0,0,1,.4-.2q.125,0,.125.232V6.4q0,1.409,1.245,1.409h.309Zm8.937-3.59a4.6,4.6,0,0,1-.627,2.152q-.782,1.457-1.911,1.457a6.056,6.056,0,0,1-2.683-1.264,3.929,3.929,0,0,1-2.538,1.264H-219.3V7.8h1.129a1.651,1.651,0,0,1-.212-.859,1.7,1.7,0,0,1,.936-1.708l-.569-.367,1.293-2.924q.212-.483.463-.483a1.7,1.7,0,0,1,.579.251,18.785,18.785,0,0,1,3.928,2.76A5.728,5.728,0,0,1-209.8,8.581Zm-1.863.376q0-.647-1.38-1.621v.193a1.365,1.365,0,0,1-.647,1.313,5.006,5.006,0,0,0,.762.483,2.151,2.151,0,0,0,.82.309Q-211.664,9.633-211.664,8.957Zm-2.837-1.93a.765.765,0,0,0-.333-.6,1.074,1.074,0,0,0-.671-.265,1.558,1.558,0,0,0-.753.212q-.444.251-.444.579,0,.27.492.569a1.539,1.539,0,0,0,.753.28,1.062,1.062,0,0,0,.632-.241A.673.673,0,0,0-214.5,7.027Zm19.331-.27q0,3.368-2.162,4.69a10.219,10.219,0,0,1-5.173,1.013,9.129,9.129,0,0,1-4.256-.762,3.794,3.794,0,0,1-1.853-3.639,7.032,7.032,0,0,1,.357-2.2q.4-1.216.946-1.216t.55.984a2.089,2.089,0,0,0,.56,1.66q.955.849,3.841.849,2.558,0,3.252-.048a3.694,3.694,0,0,0,1.583-.367q.232-.145.232-.261a.835.835,0,0,0-.193-.357,5.442,5.442,0,0,0-1.332-1.129.207.207,0,0,1-.087-.309l1.641-2.953q.106-.193.29-.029A5.206,5.206,0,0,1-195.17,6.757ZM-200.414,15q.135.124-.006.267l-1.293,1.293a.179.179,0,0,1-.28,0l-1.313-1.274q-.164-.164.02-.347l1.2-1.218a.217.217,0,0,1,.339,0Zm11.5-2.831h-1.042q-3.619,0-3.619-3.783,0-1.612-.116-4.237-.125-2.77-.261-3.667a.664.664,0,0,1,.154-.637l2.809-1.978a.951.951,0,0,1,.4-.2q.125,0,.125.232V6.4q0,1.409,1.245,1.409h.309Zm11.321,0h-.743a2.357,2.357,0,0,1-1.824-1.255q-.927,1.255-1.689,1.255a1.542,1.542,0,0,1-.994-.415,2.425,2.425,0,0,1-.676-.878q-.878,1.293-1.612,1.293a1.9,1.9,0,0,1-1.718-1.293,2.378,2.378,0,0,1-1.882,1.313h-.753V7.837h.733a1.035,1.035,0,0,0,1.013-.586q.145-.509.28-1.019.251-.653.666-.653.483,0,.637.586.058.221.27,1.086a.873.873,0,0,0,.888.586.776.776,0,0,0,.772-.577q.068-.3.27-1.067.154-.577.637-.577t.608.569q.068.3.232,1.062a.759.759,0,0,0,.762.569.764.764,0,0,0,.772-.56q.1-.512.232-1.062a.631.631,0,0,1,.656-.55q.434,0,.6.56.048.2.27,1.052a.864.864,0,0,0,.859.56h.734Zm11.263-5.99-1.1,2.6a5.621,5.621,0,0,0-2.48.406,9.833,9.833,0,0,0-1.728,1.188,9.376,9.376,0,0,1-1.747,1.188,7.236,7.236,0,0,1-3.05.628H-178.2V7.809h2.21a13.26,13.26,0,0,0,4.411-.543L-173.5,6.46a4.348,4.348,0,0,0-1.457-.417,1.993,1.993,0,0,0-1.018.405,2.556,2.556,0,0,1-.738.405q-.55,0-.55-.637a3.946,3.946,0,0,1,.927-1.988,3.214,3.214,0,0,1,2.548-1.6,4.889,4.889,0,0,1,2.432.918A16.619,16.619,0,0,0-168.707,5a21,21,0,0,0,2.181.57q.3.068.3.241A1.093,1.093,0,0,1-166.332,6.181Zm-88.029,36.311a7.855,7.855,0,0,1-1.892,5.607.778.778,0,0,1-.589.232h-4.526q-.8,0-.8-.656a.545.545,0,0,1,.338-.521,24.587,24.587,0,0,0,3.146-1.892q2.432-1.66,2.432-2.365,0-.579-2.172-2.606l1.544-3.185q.135-.27.357-.068a6.259,6.259,0,0,1,1.641,2.162A8.657,8.657,0,0,1-254.361,42.492Zm6.235.791h-1.042q-3.619,0-3.619-3.783,0-1.612-.116-4.237-.125-2.77-.261-3.667a.664.664,0,0,1,.154-.637l2.809-1.978a.951.951,0,0,1,.4-.2q.125,0,.125.232v8.5q0,1.409,1.245,1.409h.309Zm12.769.019h-.859a2.459,2.459,0,0,1-2.21-1.7q-1.226,1.641-4.15,1.641a6.4,6.4,0,0,1-1.882-.3,3.4,3.4,0,0,1-1.592-.888,2.195,2.195,0,0,1-1.814,1.245h-.83V38.921h.714a.993.993,0,0,0,.927-.581q.068-.126.376-1.1.183-.581.5-.581.376,0,.69,1.066t.767,1.066a8.15,8.15,0,0,0,1.033-1.148,14.7,14.7,0,0,1,2.1-2.133,4.588,4.588,0,0,1,2.77-1.148,2.349,2.349,0,0,1,1.814.769,2.7,2.7,0,0,1,.7,1.891,3.619,3.619,0,0,1-.376,1.673q.116.222.512.222h.8Zm-3.436-4.9q0-1.11-1.322-1.11-1.293,0-3.33,2.007.444.019.869.019a10.2,10.2,0,0,0,2.847-.328Q-238.794,38.709-238.794,38.4Zm7.682-.169a6.947,6.947,0,0,1-.762,3.787q-.888,1.285-3.281,1.285h-.753V38.921h2.181q.569,0,.569-.319a.65.65,0,0,0-.164-.377,12.19,12.19,0,0,0-1.544-1.615q-.145-.135,0-.348l1.8-2.611q.145-.213.212-.213.087,0,.241.193A7.06,7.06,0,0,1-231.111,38.231Zm-1.11-7.9a.173.173,0,0,1,0,.283l-1.3,1.283a.185.185,0,0,1-.286,0l-1.31-1.267q-.164-.155.03-.349l1.206-1.226a.2.2,0,0,1,.328,0Zm6.254,7.933a11.394,11.394,0,0,1-.261,2.152,9.538,9.538,0,0,1-.6,2.075q-.405.849-.762.849-.386,0-.666-1.033-.4-1.457-1.679-10.047l2.915-3.175q.27-.3.367-.3.077,0,.135.27A25.863,25.863,0,0,1-226,33.642Q-225.967,34.453-225.967,38.265Zm13.261,5.038h-.984a2.651,2.651,0,0,1-2.722-2.287q-.415.975-.9.975a5.611,5.611,0,0,1-2.065-.473q-1.554-.627-1.554-1.631a3.825,3.825,0,0,1,.791-2.21q.068-.1,2.374-2.1l-.183-.83,2.249-2.268a.369.369,0,0,1,.222-.135q.106,0,.154.251l.917,4.978q.251,1.353,1.062,1.353h.637Zm-4.111-4.295-.54-1.969q-1.342,1-1.342,1.409Q-218.7,38.9-216.818,39.008Zm15.423-1.714-1.1,2.6a5.621,5.621,0,0,0-2.48.406,9.834,9.834,0,0,0-1.728,1.188,9.375,9.375,0,0,1-1.747,1.188,7.236,7.236,0,0,1-3.05.628h-1.766V38.921h2.21a13.26,13.26,0,0,0,4.411-.543l-1.921-.805a4.348,4.348,0,0,0-1.457-.417,1.993,1.993,0,0,0-1.018.405,2.556,2.556,0,0,1-.738.405q-.55,0-.55-.637a3.946,3.946,0,0,1,.927-1.988,3.214,3.214,0,0,1,2.548-1.6,4.889,4.889,0,0,1,2.432.918,16.619,16.619,0,0,0,2.654,1.459,21,21,0,0,0,2.181.57q.3.068.3.241A1.094,1.094,0,0,1-201.4,37.294Zm-2.423,8.2a.123.123,0,0,1-.009.212l-1.149,1.139a.142.142,0,0,1-.222,0l-1.129-1.1-1.1,1.1a.163.163,0,0,1-.241,0l-1.148-1.12q-.135-.126.019-.28l1.064-1.078a.174.174,0,0,1,.275,0l1.133,1.077.012,0,1.041-1.073a.177.177,0,0,1,.28,0Zm-1.224,2.2a.148.148,0,0,1-.011.223l-1.148,1.129a.185.185,0,0,1-.116.067.185.185,0,0,1-.116-.068l-1.148-1.129q-.116-.116.038-.271l1.05-1.073a.173.173,0,0,1,.273,0Zm12.4-5.2a7.855,7.855,0,0,1-1.892,5.607.778.778,0,0,1-.589.232h-4.526q-.8,0-.8-.656a.545.545,0,0,1,.338-.521,24.589,24.589,0,0,0,3.146-1.892q2.432-1.66,2.432-2.365,0-.579-2.172-2.606l1.544-3.185q.135-.27.357-.068a6.259,6.259,0,0,1,1.641,2.162A8.657,8.657,0,0,1-192.642,42.492Zm6.235.791h-1.042q-3.619,0-3.619-3.783,0-1.612-.116-4.237-.125-2.77-.261-3.667a.664.664,0,0,1,.154-.637l2.809-1.978a.951.951,0,0,1,.4-.2q.125,0,.125.232v8.5q0,1.409,1.245,1.409h.309Zm5.578.019h-.743a2.38,2.38,0,0,1-2.152-1.293,2.474,2.474,0,0,1-2.287,1.293h-.946V38.921h.608a1.587,1.587,0,0,0,1.438-.62,7.033,7.033,0,0,0,.386-1.134q.183-.62.666-.62.463,0,.6.62a5.933,5.933,0,0,0,.318,1.134,1.457,1.457,0,0,0,1.37.62h.743Zm-.541,2.327a.139.139,0,0,1-.009.221l-1.139,1.129a.145.145,0,0,1-.232,0l-1.12-1.1-1.12,1.1a.145.145,0,0,1-.232,0l-1.148-1.12q-.125-.124.023-.267l1.07-1.092A.169.169,0,0,1-185,44.5l1.136,1.094.012-.014,1.041-1.073a.173.173,0,0,1,.273,0Zm-1.237,2.2a.132.132,0,0,1,0,.219l-1.139,1.129a.145.145,0,0,1-.232,0l-1.158-1.129q-.116-.114.042-.266l1.041-1.073a.176.176,0,0,1,.278,0Zm11.478-4.529h-.753a3.773,3.773,0,0,1-2.017-.717,6.925,6.925,0,0,1-1.621-1.464,3.481,3.481,0,0,1-1.911,1.8,7.962,7.962,0,0,1-2.77.378h-1.206V38.921h1.255a8.885,8.885,0,0,0,2.1-.164q.241-.068.241-.213a.6.6,0,0,0-.164-.309q-.386-.473-2.982-3.159l.531-3.111a.323.323,0,0,1,.212-.28l7.47-2.473a.3.3,0,0,1,.145-.029q.039.01.019.213l-.327,3.19a.926.926,0,0,1-.038.222.374.374,0,0,1-.2.126l-4.383,1.491q2.6,3.007,2.915,3.307a3.662,3.662,0,0,0,2.471,1.19h1.013Zm4.227-5.072a6.947,6.947,0,0,1-.762,3.787q-.888,1.285-3.281,1.285h-.753V38.921h2.181q.569,0,.569-.319a.65.65,0,0,0-.164-.377,12.192,12.192,0,0,0-1.544-1.615q-.145-.135,0-.348l1.8-2.611q.145-.213.212-.213.087,0,.241.193A7.06,7.06,0,0,1-166.9,38.231Zm.727,7.9q.135.107-.012.244l-1.148,1.129a.157.157,0,0,1-.251,0l-1.081-1.052L-169.73,47.5a.157.157,0,0,1-.251,0l-1.148-1.12q-.145-.135.029-.308L-170.042,45a.185.185,0,0,1,.292,0l1.085,1.044L-167.644,45a.194.194,0,0,1,.3-.008Z" transform="translate(-262.391 -13836.328)" fill="#005faa"/>
  </g>
</svg>
